<svg xmlns="http://www.w3.org/2000/svg" style="display: none;">
  <!-- Home icon -->
  <symbol id="home" viewBox="0 0 24 24" fill="currentColor">
    <path d="M10 20v-6h4v6h5v-8h3L12 3 2 12h3v8z"/>
  </symbol>
  
  <!-- Warehouse icon -->
  <symbol id="warehouse" viewBox="0 0 24 24" fill="currentColor">
    <path d="M12 3L2 12h3v8h6v-6h2v6h6v-8h3L12 3z"/>
  </symbol>
  
  <!-- Cart icon -->
  <symbol id="cart" viewBox="0 0 24 24" fill="currentColor">
    <path d="M7 18c-1.1 0-2 .9-2 2s.9 2 2 2 2-.9 2-2-.9-2-2-2zM1 2v2h2l3.6 7.59-1.35 2.45c-.16.28-.25.61-.25.96 0 1.1.9 2 2 2h12v-2H7.42c-.14 0-.25-.11-.25-.25l.03-.12L8.1 13h7.45c.75 0 1.41-.41 1.75-1.03L21.7 4H5.21l-.94-2H1zm16 16c-1.1 0-2 .9-2 2s.9 2 2 2 2-.9 2-2-.9-2-2-2z"/>
  </symbol>
  
  <!-- Users icon -->
  <symbol id="users" viewBox="0 0 24 24" fill="currentColor">
    <path d="M16 4c0-1.11.89-2 2-2s2 .89 2 2-.89 2-2 2-2-.89-2-2zm4 18v-6h2.5l-2.54-7.63A1.5 1.5 0 0 0 18.54 8H17c-.8 0-1.54.37-2.01.99L14 10.5v7.5h2v6h4zM12.5 11.5c.83 0 1.5-.67 1.5-1.5s-.67-1.5-1.5-1.5S11 9.17 11 10s.67 1.5 1.5 1.5zM5.5 6c1.11 0 2-.89 2-2s-.89-2-2-2-2 .89-2 2 .89 2 2 2zm2 16v-7H9V9.5C9 8.12 7.88 7 6.5 7S4 8.12 4 9.5V15H2.5v7h5z"/>
  </symbol>
  
  <!-- Report icon -->
  <symbol id="report" viewBox="0 0 24 24" fill="currentColor">
    <path d="M19 3H5c-1.1 0-2 .9-2 2v14c0 1.1.9 2 2 2h14c1.1 0 2-.9 2-2V5c0-1.1-.9-2-2-2zM9 17H7v-7h2v7zm4 0h-2V7h2v10zm4 0h-2v-4h2v4z"/>
  </symbol>
  
  <!-- Staff icon -->
  <symbol id="staff" viewBox="0 0 24 24" fill="currentColor">
    <path d="M12 12c2.21 0 4-1.79 4-4s-1.79-4-4-4-4 1.79-4 4 1.79 4 4 4zm0 2c-2.67 0-8 1.34-8 4v2h16v-2c0-2.66-5.33-4-8-4z"/>
  </symbol>
  
  <!-- Pill icon -->
  <symbol id="pill" viewBox="0 0 24 24" fill="currentColor">
    <path d="M4.22 11.29l4.95-4.95c.39-.39 1.02-.39 1.41 0l2.83 2.83c.39.39.39 1.02 0 1.41l-4.95 4.95c-.39.39-1.02.39-1.41 0L4.22 12.7c-.39-.39-.39-1.02 0-1.41zM21 12c0 4.97-4.03 9-9 9s-9-4.03-9-9 4.03-9 9-9 9 4.03 9 9z"/>
  </symbol>
  
  <!-- Invoice icon -->
  <symbol id="invoice" viewBox="0 0 24 24" fill="currentColor">
    <path d="M14 2H6c-1.1 0-1.99.9-1.99 2L4 20c0 1.1.89 2 2 2h12c1.1 0 2-.9 2-2V8l-6-6zm2 16H8v-2h8v2zm0-4H8v-2h8v2zm-3-5V3.5L18.5 9H13z"/>
  </symbol>
  
  <!-- Sun icon -->
  <symbol id="sun" viewBox="0 0 24 24" fill="currentColor">
    <path d="M12 7c-2.76 0-5 2.24-5 5s2.24 5 5 5 5-2.24 5-5-2.24-5-5-5zM2 13h2c.55 0 1-.45 1-1s-.45-1-1-1H2c-.55 0-1 .45-1 1s.45 1 1 1zm18 0h2c.55 0 1-.45 1-1s-.45-1-1-1h-2c-.55 0-1 .45-1 1s.45 1 1 1zM11 2v2c0 .55.45 1 1 1s1-.45 1-1V2c0-.55-.45-1-1-1s-1 .45-1 1zm0 18v2c0 .55.45 1 1 1s1-.45 1-1v-2c0-.55-.45-1-1-1s-1 .45-1 1zM5.99 4.58c-.39-.39-1.03-.39-1.41 0-.39.39-.39 1.03 0 1.41l1.06 1.06c.39.39 1.03.39 1.41 0s.39-1.03 0-1.41L5.99 4.58zm12.37 12.37c-.39-.39-1.03-.39-1.41 0-.39.39-.39 1.03 0 1.41l1.06 1.06c.39.39 1.03.39 1.41 0 .39-.39.39-1.03 0-1.41l-1.06-1.06zm1.06-10.96c.39-.39.39-1.03 0-1.41-.39-.39-1.03-.39-1.41 0l-1.06 1.06c-.39.39-.39 1.03 0 1.41s1.03.39 1.41 0l1.06-1.06zM7.05 18.36c.39-.39.39-1.03 0-1.41-.39-.39-1.03-.39-1.41 0l-1.06 1.06c-.39.39-.39 1.03 0 1.41s1.03.39 1.41 0l1.06-1.06z"/>
  </symbol>
  
  <!-- Moon icon -->
  <symbol id="moon" viewBox="0 0 24 24" fill="currentColor">
    <path d="M12 3c-4.97 0-9 4.03-9 9s4.03 9 9 9 9-4.03 9-9c0-.46-.04-.92-.1-1.36-.98 1.37-2.58 2.26-4.4 2.26-2.98 0-5.4-2.42-5.4-5.4 0-1.81.89-3.42 2.26-4.4-.44-.06-.9-.1-1.36-.1z"/>
  </symbol>
  
  <!-- Search icon -->
  <symbol id="search" viewBox="0 0 24 24" fill="currentColor">
    <path d="M15.5 14h-.79l-.28-.27C15.41 12.59 16 11.11 16 9.5 16 5.91 13.09 3 9.5 3S3 5.91 3 9.5 5.91 16 9.5 16c1.61 0 3.09-.59 4.23-1.57l.27.28v.79l5 4.99L20.49 19l-4.99-5zm-6 0C7.01 14 5 11.99 5 9.5S7.01 5 9.5 5 14 7.01 14 9.5 11.99 14 9.5 14z"/>
  </symbol>
  
  <!-- Add icon -->
  <symbol id="add" viewBox="0 0 24 24" fill="currentColor">
    <path d="M19 13h-6v6h-2v-6H5v-2h6V5h2v6h6v2z"/>
  </symbol>
  
  <!-- Edit icon -->
  <symbol id="edit" viewBox="0 0 24 24" fill="currentColor">
    <path d="M3 17.25V21h3.75L17.81 9.94l-3.75-3.75L3 17.25zM20.71 7.04c.39-.39.39-1.02 0-1.41l-2.34-2.34c-.39-.39-1.02-.39-1.41 0l-1.83 1.83 3.75 3.75 1.83-1.83z"/>
  </symbol>
  
  <!-- Delete icon -->
  <symbol id="delete" viewBox="0 0 24 24" fill="currentColor">
    <path d="M6 19c0 1.1.9 2 2 2h8c1.1 0 2-.9 2-2V7H6v12zM19 4h-3.5l-1-1h-5l-1 1H5v2h14V4z"/>
  </symbol>
  
  <!-- Save icon -->
  <symbol id="save" viewBox="0 0 24 24" fill="currentColor">
    <path d="M17 3H5c-1.11 0-2 .9-2 2v14c0 1.1.89 2 2 2h14c1.1 0 2-.9 2-2V7l-4-4zm-5 16c-1.66 0-3-1.34-3-3s1.34-3 3-3 3 1.34 3 3-1.34 3-3 3zm3-10H5V5h10v4z"/>
  </symbol>
  
  <!-- Print icon -->
  <symbol id="print" viewBox="0 0 24 24" fill="currentColor">
    <path d="M19 8H5c-1.66 0-3 1.34-3 3v6h4v4h12v-4h4v-6c0-1.66-1.34-3-3-3zm-3 11H8v-5h8v5zm3-7c-.55 0-1-.45-1-1s.45-1 1-1 1 .45 1 1-.45 1-1 1zm-1-9H6v4h12V3z"/>
  </symbol>
  
  <!-- Check icon -->
  <symbol id="check" viewBox="0 0 24 24" fill="currentColor">
    <path d="M9 16.17L4.83 12l-1.42 1.41L9 19 21 7l-1.41-1.41z"/>
  </symbol>
  
  <!-- Close icon -->
  <symbol id="close" viewBox="0 0 24 24" fill="currentColor">
    <path d="M19 6.41L17.59 5 12 10.59 6.41 5 5 6.41 10.59 12 5 17.59 6.41 19 12 13.41 17.59 19 19 17.59 13.41 12z"/>
  </symbol>
</svg>